<?xml version="1.0" standalone="no"?>
<!DOCTYPE svg PUBLIC "-//W3C//DTD SVG 20010904//EN"
 "http://www.w3.org/TR/2001/REC-SVG-20010904/DTD/svg10.dtd">
<svg version="1.0" xmlns="http://www.w3.org/2000/svg"
 width="500.000000pt" height="500.000000pt" viewBox="0 0 500.000000 500.000000"
 preserveAspectRatio="xMidYMid meet">
<metadata>
Created by potrace 1.16, written by Peter Selinger 2001-2019
</metadata>
<g transform="translate(0.000000,500.000000) scale(0.100000,-0.100000)"
fill="#e6e6e6e6" stroke="none">
<path d="M2354 4371 c-18 -11 -39 -30 -48 -42 -20 -29 -21 -98 -2 -125 16 -22
68 -47 133 -64 50 -12 69 -39 53 -71 -16 -28 -71 -23 -85 9 -10 23 -29 27 -84
16 -29 -6 -32 -10 -26 -33 14 -56 69 -91 145 -91 99 0 160 48 160 125 0 62
-27 90 -111 116 -91 28 -119 55 -87 87 19 19 56 14 70 -8 10 -16 24 -20 65
-20 57 0 62 6 43 54 -23 62 -156 90 -226 47z"/>
<path d="M2747 4178 c-15 -111 -24 -205 -19 -209 4 -4 26 -9 49 -11 42 -3 42
-3 48 34 3 21 8 57 11 79 l6 41 57 -5 c73 -8 119 9 148 52 36 54 31 105 -14
151 -39 39 -45 40 -224 66 l-35 5 -27 -203z"/>
<path d="M1875 4325 c-22 -8 -57 -32 -77 -53 -91 -98 -68 -256 46 -327 42 -25
59 -30 112 -29 87 1 148 38 187 113 31 62 34 109 12 172 -40 112 -161 166
-280 124z m153 -108 c50 -50 47 -146 -5 -187 -37 -29 -102 -27 -136 4 -29 27
-48 86 -41 125 17 83 123 117 182 58z"/>
<path d="M3184 4100 l-51 -200 40 -11 c21 -6 44 -8 51 -6 9 4 106 354 106 385
0 10 -59 32 -85 32 -5 0 -33 -90 -61 -200z"/>
<path d="M1492 4222 c-31 -12 -41 -20 -36 -32 3 -8 17 -43 30 -78 l24 -62 -22
-9 c-13 -5 -46 -18 -75 -30 l-52 -20 -28 74 c-15 41 -33 75 -39 75 -16 0 -84
-29 -84 -36 0 -11 141 -369 148 -375 4 -4 26 2 50 12 l42 18 -24 63 c-13 35
-27 70 -31 79 -5 13 8 22 61 43 37 15 72 25 78 23 6 -3 22 -35 36 -72 14 -37
30 -69 36 -72 12 -5 84 24 84 35 0 14 -143 382 -149 381 -3 0 -25 -8 -49 -17z"/>
<path d="M3469 4213 c-5 -14 -12 -30 -15 -35 -3 -5 17 -18 45 -30 28 -11 51
-25 51 -31 0 -6 -25 -75 -55 -153 -30 -79 -55 -147 -55 -151 0 -5 21 -16 46
-25 l45 -16 10 27 c5 14 33 85 61 158 l50 132 50 -20 c27 -11 53 -17 58 -14
12 7 22 57 13 66 -4 4 -72 32 -151 63 l-143 55 -10 -26z"/>
<path d="M3862 3859 c-89 -77 -162 -144 -162 -149 0 -5 19 -19 41 -31 l42 -21
29 22 29 21 63 -35 c64 -36 64 -36 56 -71 -5 -22 -4 -38 4 -43 19 -16 78 -44
82 -40 9 10 83 423 77 429 -5 3 -28 18 -53 32 l-46 27 -162 -141z"/>
<path d="M4242 3615 c-67 -85 -122 -159 -122 -163 0 -9 170 -146 173 -140 1 2
12 15 25 29 l23 26 -50 40 -51 41 105 133 104 133 -32 28 c-18 15 -37 27 -42
28 -6 0 -66 -70 -133 -155z"/>
<path d="M527 3686 l-38 -32 131 -162 132 -161 39 31 c24 19 36 35 31 42 -19
25 -236 292 -246 303 -8 9 -20 4 -49 -21z"/>
<path d="M1108 3556 c-80 -50 -149 -94 -153 -98 -8 -8 32 -78 45 -78 5 0 77
41 159 91 l150 92 -14 26 c-34 65 -27 66 -187 -33z"/>
<path d="M1370 3285 l0 -65 150 0 150 0 0 -670 0 -670 -395 0 -395 0 0 -580 0
-580 -60 0 -60 0 0 -65 0 -65 1738 2 1737 3 3 62 3 63 -61 0 -60 0 0 580 0
580 -400 0 -400 0 0 670 0 669 153 3 152 3 3 63 3 62 -1131 0 -1130 0 0 -65z
m1830 -1315 l0 -1250 -185 0 -185 0 0 305 0 305 -335 0 -335 0 0 -305 0 -305
-185 0 -185 0 0 1250 0 1250 705 0 705 0 0 -1250z m-1530 -730 l0 -520 -335 0
-335 0 0 520 0 520 335 0 335 0 0 -520z m2320 0 l0 -520 -335 0 -335 0 0 520
0 520 335 0 335 0 0 -520z m-1280 -280 l0 -240 -215 0 -215 0 0 240 0 240 215
0 215 0 0 -240z"/>
<path d="M2340 2490 l0 -120 -120 0 -120 0 0 -185 0 -185 120 0 120 0 0 -120
0 -120 185 0 185 0 0 120 0 120 125 0 125 0 -2 183 -3 182 -122 3 -123 3 0
119 0 120 -185 0 -185 0 0 -120z m250 -125 l0 -125 120 0 120 0 0 -60 0 -60
-120 0 -120 0 0 -120 0 -120 -60 0 -60 0 0 120 0 120 -125 0 -125 0 0 60 0 59
123 3 122 3 3 123 3 122 59 0 60 0 0 -125z"/>
<path d="M1127 1634 c-4 -4 -7 -34 -7 -66 l0 -58 215 0 216 0 -3 63 -3 62
-206 3 c-113 1 -208 -1 -212 -4z"/>
<path d="M1120 1330 l0 -60 215 0 215 0 0 60 0 60 -215 0 -215 0 0 -60z"/>
<path d="M1127 1144 c-4 -4 -7 -34 -7 -66 l0 -58 215 0 216 0 -3 63 -3 62
-206 3 c-113 1 -208 -1 -212 -4z"/>
<path d="M3444 1626 c-3 -7 -4 -35 -2 -62 l3 -49 213 -3 212 -2 0 65 0 65
-210 0 c-170 0 -212 -3 -216 -14z"/>
<path d="M3440 1330 l0 -60 215 0 215 0 0 60 0 60 -215 0 -215 0 0 -60z"/>
<path d="M3444 1136 c-3 -7 -4 -35 -2 -62 l3 -49 213 -3 212 -2 0 65 0 65
-210 0 c-170 0 -212 -3 -216 -14z"/>
</g>
</svg>
